<svg width="33" height="33" viewBox="0 0 33 33" fill="none" xmlns="http://www.w3.org/2000/svg">
<path d="M12.1694 18.6841L7.82212 15.3895C7.65124 15.2598 7.51941 15.0856 7.44112 14.8858C7.36284 14.6861 7.34112 14.4687 7.37837 14.2575C7.41562 14.0462 7.51039 13.8493 7.65226 13.6884C7.79412 13.5276 7.9776 13.4089 8.18252 13.3455L23.5106 8.60383C24.5469 8.28307 25.421 9.42639 24.8412 10.343L16.054 24.206C15.9363 24.3919 15.7684 24.5408 15.5697 24.6353C15.371 24.7299 15.1496 24.7663 14.9311 24.7404C14.7125 24.7145 14.5058 24.6274 14.3347 24.489C14.1636 24.3506 14.0351 24.1666 13.9641 23.9584L12.1694 18.6841ZM12.1694 18.6841L23.782 9.66457" stroke="#F7F2F2" stroke-width="2" stroke-linecap="round"/>
</svg>
