<svg width="24" height="24" viewBox="0 0 24 24" fill="none" xmlns="http://www.w3.org/2000/svg">
<path fill-rule="evenodd" clip-rule="evenodd" d="M9.53 21.0212L10.6875 20.3475L10.62 20.2312L10.59 20.18L10.555 20.1312L10.4762 20.0225L10.4438 19.9762L10.4075 19.9338L10.32 19.8312L10.2812 19.7863L10.2375 19.7463L10.1412 19.6525L10.1012 19.615L10.0575 19.58L9.95375 19.4963L9.90625 19.4587L9.85625 19.425L9.74375 19.3512L9.69375 19.3187L9.64375 19.2925L9.525 19.23L9.475 19.2038L9.42375 19.1813L9.29875 19.13L9.24375 19.1062L9.18625 19.0887L9.05875 19.0487L9.00375 19.0312L8.94875 19.0187L8.8175 18.9913L8.76 18.9788L8.70375 18.9725L8.57 18.9575L8.5125 18.95H8.4525L8.31875 18.9462L8.2625 18.945L8.205 18.9487L8.07125 18.9575L8.0125 18.9613L7.95375 18.9712L7.82125 18.9925L7.76375 19.0025L7.7075 19.0163L7.57875 19.05L7.8725 20.18L7.565 19.055L7.415 19.095L7.30625 19.1175L7.19625 19.1313L7.08375 19.1388H6.9725L6.86125 19.13L6.75125 19.1138L6.6425 19.0913L6.53375 19.06L6.42875 19.0213L6.3275 18.9762L6.2275 18.9237L6.13125 18.865L6.04 18.8L5.9525 18.7287L5.87125 18.65L5.79375 18.5662L5.7225 18.4788L5.6575 18.3862L5.59875 18.2887L5.545 18.1862L5.5 18.0825L5.4625 17.975L5.43125 17.8625L5.40625 17.7512L5.39125 17.6388L5.3825 17.5238V17.4087L5.38875 17.2938L5.40375 17.1813L5.42625 17.0688L5.4675 16.9163L4.23625 16.5862L5.47125 16.9025L5.505 16.7712L5.51875 16.7162L5.52875 16.66L5.55 16.5263L5.55875 16.4688L5.5625 16.4113L5.5725 16.2762L5.57625 16.22L5.575 16.1638L5.57125 16.0287L5.57 15.9713L5.56375 15.9137L5.5475 15.7787L5.54125 15.7225L5.52875 15.6675L5.5025 15.535L5.49 15.48L5.47375 15.4263L5.435 15.2963L5.4175 15.24L5.395 15.185L5.3425 15.06L5.32125 15.01L5.29625 14.96L5.23375 14.84L5.2075 14.79L5.17625 14.74L5.10375 14.6275L5.07125 14.5775L5.03375 14.53L4.95 14.4237L4.91625 14.3812L4.87875 14.3413L4.78625 14.2425L4.745 14.2L4.70125 14.16L4.6 14.0725L4.5575 14.035L4.5125 14.0012L4.40375 13.9212L4.355 13.8862L4.30375 13.8562L4.1875 13.7875L3.46 15.0163L4.17625 13.7825L4.04125 13.7037L3.9475 13.6412L3.85875 13.5712L3.77375 13.4962L3.695 13.415L3.62 13.3287L3.55375 13.2388L3.49125 13.1425L3.43625 13.0425L3.38875 12.94L3.3475 12.8325L3.3125 12.7225L3.28625 12.6112L3.2675 12.4988L3.255 12.385L3.25125 12.27L3.255 12.155L3.2675 12.04L3.28625 11.9275L3.3125 11.8162L3.3475 11.7063L3.38875 11.6L3.43625 11.4975L3.49125 11.3975L3.55375 11.3013L3.62125 11.21L3.695 11.1237L3.77375 11.0437L3.85875 10.9675L3.94625 10.8988L4.04125 10.8363L4.17625 10.7575L3.46 9.5225L4.1875 10.7513L4.30375 10.6825L4.355 10.6525L4.40375 10.6175L4.5125 10.5388L4.5575 10.505L4.6 10.4675L4.7 10.38L4.745 10.34L4.78625 10.2963L4.87875 10.1987L4.91625 10.1588L4.95 10.115L5.03375 10.01L5.07125 9.9625L5.10375 9.9125L5.17625 9.79875L5.2075 9.75L5.23375 9.7L5.29625 9.57875L5.32125 9.53L5.3425 9.48L5.395 9.355L5.4175 9.29875L5.435 9.2425L5.47375 9.11375L5.49 9.05875L5.5025 9.00375L5.53 8.87125L5.54125 8.81625L5.5475 8.76L5.56375 8.62625L5.57 8.56875L5.57125 8.51125L5.575 8.375V8.32L5.5725 8.26375L5.5625 8.12875L5.55875 8.07L5.55 8.0125L5.52875 7.88L5.51875 7.82375L5.50625 7.7675L5.47125 7.6375L4.23875 7.9525L5.4675 7.62375L5.42625 7.47125L5.40375 7.35875L5.38875 7.24625L5.3825 7.13V7.015L5.39125 6.90125L5.4075 6.78875L5.43125 6.67625L5.4625 6.56375L5.5 6.45625L5.545 6.3525L5.59875 6.25125L5.6575 6.1525L5.7225 6.06125L5.79375 5.97375L5.87125 5.88875L5.95375 5.81125L6.04125 5.74L6.13125 5.675L6.2275 5.615L6.3275 5.5625L6.4275 5.5175L6.53375 5.48L6.6425 5.44875L6.75125 5.425L6.86125 5.41L6.9725 5.40125H7.085L7.1975 5.4075L7.30625 5.4225L7.415 5.44375L7.565 5.485L7.8725 4.36L7.57875 5.48875L7.7075 5.5225L7.76375 5.5375L7.82125 5.54625L7.95375 5.56875L8.0125 5.5775L8.07125 5.5825L8.205 5.59125L8.2625 5.595L8.31875 5.59375L8.4525 5.59H8.5125L8.57 5.5825L8.70375 5.56625L8.76 5.56L8.8175 5.5475L8.9475 5.52L9.00375 5.5075L9.05875 5.49125L9.18625 5.45125L9.24375 5.4325L9.3 5.41L9.42375 5.3575L9.475 5.33625L9.525 5.31L9.64375 5.2475L9.69375 5.22L9.74375 5.1875L9.85625 5.11375L9.90625 5.08125L9.95375 5.04375L10.0575 4.96L10.1012 4.925L10.1412 4.8875L10.2375 4.79375L10.2812 4.7525L10.3187 4.7075L10.4075 4.605L10.445 4.5625L10.4762 4.5175L10.555 4.4075L10.59 4.36L10.62 4.30875L10.6875 4.19125L9.53 3.5175L10.695 4.1825L10.7738 4.045L10.8363 3.95L10.9038 3.86L10.9787 3.77375L11.06 3.69375L11.145 3.62L11.2338 3.5525L11.3288 3.49L11.4263 3.435L11.5263 3.3875L11.6313 3.34625L11.7388 3.3125L11.8475 3.28625L11.9563 3.26625L12.0688 3.255L12.1787 3.25125L12.2913 3.255L12.4037 3.2675L12.5113 3.28625L12.62 3.31125L12.7275 3.34625L12.8313 3.3875L12.9312 3.435L13.03 3.49L13.1238 3.5525L13.2137 3.62L13.2987 3.695L13.3787 3.77375L13.4538 3.86L13.5225 3.95L13.585 4.045L13.6638 4.1825L14.645 3.6225L13.6675 4.19125L13.735 4.30875L13.765 4.35875L13.8 4.40875L13.8775 4.5175L13.9113 4.5625L13.9475 4.605L14.035 4.7075L14.0738 4.7525L14.1175 4.79375L14.2137 4.8875L14.2538 4.925L14.2962 4.96L14.4012 5.04375L14.4487 5.08125L14.4987 5.11375L14.6112 5.18875L14.6612 5.22L14.7112 5.2475L14.83 5.31L14.88 5.335L14.9313 5.3575L15.0562 5.41L15.11 5.4325L15.1675 5.45125L15.2963 5.49125L15.3512 5.5075L15.4062 5.52L15.5375 5.5475L15.5938 5.56L15.6512 5.56625L15.785 5.5825L15.8425 5.58875L15.9013 5.59L16.0363 5.59375H16.0925L16.15 5.59125L16.2838 5.5825L16.3425 5.5775L16.4012 5.56875L16.5337 5.54625L16.59 5.5375L16.6462 5.5225L16.7763 5.48875L16.4263 4.14625L16.7925 5.485L16.9425 5.44375L17.0513 5.4225L17.1612 5.4075L17.2738 5.40125H17.385L17.4963 5.41L17.6063 5.425L17.715 5.44875L17.8237 5.48L17.9287 5.5175L18.03 5.5625L18.13 5.615L18.2263 5.675L18.3175 5.74L18.405 5.81125L18.4862 5.88875L18.5637 5.9725L18.635 6.06L18.7 6.1525L18.7587 6.25125L18.8125 6.3525L18.8575 6.45625L18.895 6.565L18.9275 6.67625L18.95 6.78875L18.9662 6.90125L18.975 7.015V7.13L18.9688 7.245L18.9538 7.35875L18.9312 7.47125L18.89 7.62375L20.0962 7.9475L18.8875 7.6375L18.8538 7.7675L18.8388 7.82375L18.83 7.88L18.8088 8.0125L18.8 8.07L18.795 8.12875L18.7863 8.26375L18.7825 8.32L18.7838 8.375L18.7875 8.51V8.56875L18.795 8.62625L18.8112 8.76L18.8175 8.81625L18.83 8.87125L18.8563 9.00375L18.8688 9.05875L18.885 9.11375L18.9237 9.2425L18.9412 9.29875L18.9637 9.35375L19.015 9.47875L19.0362 9.53L19.0613 9.58L19.1237 9.69875L19.1513 9.75L19.1825 9.79875L19.255 9.91125L19.2875 9.96125L19.325 10.01L19.4088 10.115L19.4425 10.1588L19.48 10.1987L19.5725 10.2963L19.6125 10.34L19.6575 10.3787L19.7588 10.4675L19.8012 10.505L19.8463 10.5388L19.955 10.6175L20.0037 10.6525L20.055 10.6825L20.1713 10.7513L20.7062 9.84625L20.1787 10.7575L20.3137 10.8363L20.4075 10.8988L20.495 10.9675L20.5812 11.0425L20.66 11.1237L20.7337 11.21L20.8013 11.3013L20.8638 11.3975L20.9188 11.4975L20.9663 11.6L21.0075 11.7063L21.0425 11.8162L21.0687 11.9288L21.0875 12.04L21.1 12.155L21.1025 12.27L21.0987 12.385L21.0875 12.5L21.0687 12.6125L21.0425 12.7225L21.0075 12.8325L20.9663 12.94L20.9188 13.0425L20.8638 13.1425L20.8013 13.2388L20.7337 13.3287L20.66 13.4163L20.5812 13.4962L20.4963 13.5712L20.4075 13.6412L20.3137 13.7037L20.1787 13.7825L20.7062 14.6925L20.1713 13.7875L20.055 13.8562L20.0037 13.8862L19.955 13.9212L19.8463 14.0012L19.8012 14.0337L19.7588 14.0712L19.6588 14.16L19.6125 14.2L19.5725 14.2425L19.48 14.3413L19.4425 14.3812L19.4088 14.4237L19.325 14.53L19.2875 14.5775L19.255 14.6275L19.1825 14.74L19.1513 14.79L19.125 14.84L19.0625 14.96L19.0375 15.01L19.0163 15.06L18.9637 15.185L18.9412 15.24L18.9237 15.2963L18.885 15.4263L18.8688 15.48L18.8563 15.535L18.8287 15.6675L18.8162 15.7225L18.8112 15.7787L18.795 15.9137L18.7887 15.9713L18.7875 16.0287L18.7838 16.1638V16.22L18.7863 16.2762L18.7962 16.4113L18.8 16.4688L18.8088 16.5263L18.83 16.66L18.8388 16.7162L18.8538 16.7712L18.8875 16.9025L20.1 16.5913L18.89 16.9163L18.9312 17.0688L18.9538 17.1813L18.9688 17.2938L18.975 17.4087V17.5238L18.9662 17.6388L18.95 17.7512L18.9275 17.8638L18.895 17.975L18.8575 18.0825L18.8125 18.1862L18.7587 18.2887L18.7 18.3862L18.635 18.4788L18.5637 18.5662L18.4862 18.65L18.4037 18.7287L18.3162 18.8L18.2263 18.865L18.13 18.9237L18.03 18.9762L17.93 19.0213L17.8237 19.0588L17.715 19.0913L17.6063 19.1138L17.4963 19.13L17.385 19.1375H17.2725L17.1612 19.1313L17.0513 19.1175L16.9425 19.095L16.7925 19.0537L16.4263 20.3925L16.7763 19.05L16.6462 19.0163L16.59 19.0025L16.5337 18.9925L16.4012 18.9712L16.3425 18.9613L16.2838 18.9575L16.15 18.9487L16.0925 18.945H16.0363L15.9025 18.9487L15.8425 18.95L15.785 18.9575L15.6512 18.9725L15.5938 18.98L15.5375 18.9925L15.4062 19.02L15.3512 19.0325L15.2963 19.0487L15.1675 19.0887L15.11 19.1062L15.055 19.13L14.9313 19.1813L14.88 19.2038L14.83 19.2288L14.7112 19.2913L14.6612 19.32L14.6112 19.3512L14.4987 19.425L14.4487 19.4575L14.4012 19.495L14.2975 19.58L14.2538 19.6138L14.2137 19.6513L14.1175 19.7463L14.0738 19.7863L14.0362 19.8312L13.9475 19.9338L13.91 19.9762L13.8775 20.0225L13.8 20.1312L13.765 20.18L13.735 20.23L13.6675 20.3475L14.645 20.9162L13.6638 20.3575L13.585 20.495L13.5225 20.59L13.455 20.68L13.38 20.765L13.2987 20.845L13.2137 20.92L13.1238 20.9875L13.03 21.05L12.9325 21.1038L12.8325 21.1525L12.7275 21.1925L12.62 21.2275L12.5113 21.2525L12.4025 21.2725L12.29 21.2838L12.18 21.2875L12.0675 21.2838L11.955 21.2712L11.8475 21.2537L11.7388 21.2275L11.6313 21.1925L11.5275 21.1525L11.4275 21.1038L11.3288 21.0487L11.235 20.9862L11.145 20.9188L11.06 20.845L10.98 20.765L10.905 20.6788L10.8363 20.59L10.7738 20.495L10.695 20.3575L9.53 21.0212ZM3.05375 8.27125L3 8.08L2.98875 8.04L2.98125 7.99875L2.9425 7.80375L2.93375 7.7625L2.92875 7.71875L2.90375 7.5225L2.8975 7.48125L2.895 7.44L2.8825 7.24L2.88 7.2V7.15875L2.88125 6.95875V6.9175L2.8875 6.875L2.9025 6.67625L2.905 6.635L2.91125 6.59375L2.93875 6.3975L2.945 6.35375L2.95375 6.3125L2.995 6.1175L3.00375 6.0775L3.015 6.0375L3.06875 5.84625L3.08 5.80625L3.0925 5.7675L3.16 5.58L3.17375 5.54L3.19125 5.50125L3.27 5.31875L3.2875 5.27875L3.3075 5.24125L3.39875 5.065L3.4175 5.02875L3.43875 4.99375L3.54 4.82375L3.5625 4.7875L3.5875 4.7525L3.7 4.59L3.725 4.555L3.7525 4.52125L3.8775 4.3675L3.90375 4.335L3.9325 4.30375L4.0675 4.15875L4.095 4.12875L4.12625 4.1L4.27 3.9625L4.3 3.935L4.3325 3.9075L4.485 3.7825L4.51875 3.755L4.55375 3.73L4.715 3.615L4.75 3.59L4.7875 3.5675L4.955 3.46375L4.99 3.4425L5.02625 3.42375L5.20125 3.33125L5.23875 3.31125L5.27875 3.29375L5.46 3.21375L5.49875 3.19625L5.54 3.18125L5.725 3.115L5.765 3.1L5.805 3.0875L5.99375 3.03375L6.035 3.0225L6.07625 3.01375L6.26875 2.9725L6.31125 2.9625L6.355 2.95625L6.55 2.92875L6.5925 2.9225L6.63375 2.92L6.83125 2.905L6.87375 2.90125H7.15625L7.19875 2.9025L7.395 2.915L7.4375 2.9175L7.47875 2.92375L7.675 2.94875L7.7175 2.95375L7.76125 2.9625L7.95375 3.0025L7.995 3.01L8.035 3.0225L8.22625 3.0725L8.285 3.08875L8.30125 3.09125L8.31875 3.0925H8.33625L8.35375 3.09L8.3725 3.08625L8.38875 3.08125L8.405 3.075L8.42375 3.065L8.43625 3.05625L8.45125 3.04375L8.46625 3.03125L8.47875 3.01625L8.49 3L8.5275 2.935L8.6225 2.7725L8.6425 2.73625L8.66375 2.70375L8.77375 2.5375L8.79875 2.5L8.82375 2.46625L8.945 2.30875L8.97 2.27625L8.9975 2.245L9.1275 2.095L9.155 2.06375L9.18625 2.03375L9.32625 1.89375L9.35625 1.86375L9.3875 1.83625L9.5375 1.70625L9.56875 1.67875L9.60375 1.6525L9.76125 1.5325L9.79375 1.5075L9.82875 1.485L9.99375 1.37625L10.0312 1.3525L10.0675 1.3325L10.24 1.235L10.2775 1.215L10.315 1.19625L10.4937 1.11125L10.5312 1.0925L10.5725 1.07625L10.7563 1.005L10.7962 0.98875L10.8363 0.97625L11.0238 0.91625L11.0638 0.90375L11.105 0.89375L11.2963 0.8475L11.3387 0.83625L11.3813 0.83L11.575 0.79625L11.6175 0.78875L11.6613 0.78375L11.8575 0.76375L11.8987 0.76L11.94 0.75875L12.1363 0.75125L12.18 0.75L12.225 0.75125L12.4212 0.75875L12.4625 0.76L12.5037 0.76375L12.7 0.78375L12.7438 0.78875L12.7862 0.79625L12.98 0.83L13.0225 0.83625L13.065 0.8475L13.2563 0.89375L13.2975 0.90375L13.3375 0.91625L13.525 0.97625L13.565 0.98875L13.605 1.005L13.7887 1.07625L13.8288 1.0925L13.8675 1.11125L14.0463 1.19625L14.0837 1.215L14.1212 1.235L14.2937 1.3325L14.3312 1.3525L14.3662 1.3775L14.5325 1.485L14.5675 1.5075L14.6 1.5325L14.7575 1.6525L14.7925 1.6775L14.825 1.70625L14.975 1.83625L15.005 1.86375L15.035 1.89375L15.175 2.03375L15.205 2.06375L15.2337 2.095L15.3638 2.245L15.3913 2.27625L15.4163 2.30875L15.5375 2.46625L15.5625 2.50125L15.5875 2.53875L15.6975 2.70375L15.7188 2.73625L15.7388 2.7725L15.8375 2.94375L15.8363 2.945L15.8675 3L15.88 3.01625L15.8912 3.03L15.9062 3.04375L15.9213 3.05625L15.9338 3.065L15.9525 3.075L15.9688 3.08125L15.985 3.08625L16.0037 3.09L16.0212 3.0925H16.0562L16.0725 3.08875L16.1475 3.07L16.325 3.02125L16.365 3.01L16.4062 3.0025L16.5988 2.9625L16.6425 2.95375L16.6862 2.94875L16.8813 2.92375L16.9225 2.9175L16.965 2.915L17.1612 2.9025L17.2038 2.9H17.2463L17.4425 2.90125H17.4862L17.5288 2.905L17.7262 2.92L17.7675 2.9225L17.81 2.92875L18.005 2.95625L18.0488 2.9625L18.0912 2.9725L18.2838 3.01375L18.325 3.0225L18.365 3.035L18.555 3.08875L18.5963 3.10125L18.635 3.11375L18.82 3.18125L18.8612 3.19625L18.9012 3.21375L19.0813 3.29375L19.12 3.31125L19.1587 3.33125L19.3338 3.42375L19.3713 3.4425L19.405 3.46375L19.5737 3.5675L19.61 3.59L19.645 3.615L19.8063 3.73L19.8413 3.755L19.875 3.7825L20.0275 3.9075L20.06 3.935L20.09 3.96375L20.2337 4.1L20.265 4.12875L20.2938 4.15875L20.4275 4.30375L20.4562 4.335L20.4825 4.3675L20.6075 4.52125L20.6337 4.555L20.6588 4.59L20.7725 4.7525L20.7975 4.7875L20.82 4.825L20.9225 4.99375L20.9425 5.02875L20.9613 5.065L21.0525 5.24L21.0725 5.27875L21.09 5.31875L21.1687 5.50125L21.1863 5.53875L21.1987 5.58L21.2663 5.7675L21.28 5.805L21.2925 5.84625L21.345 6.0375L21.3575 6.0775L21.365 6.1175L21.4062 6.3125L21.415 6.35375L21.4213 6.3975L21.4487 6.59375L21.455 6.635L21.4575 6.67625L21.4725 6.875L21.475 6.9175V6.96L21.4762 7.15875V7.2L21.475 7.24125L21.4625 7.44L21.46 7.48125L21.455 7.5225L21.43 7.71875L21.4237 7.7625L21.415 7.80375L21.3775 7.99875L21.3688 8.04L21.3575 8.08L21.3075 8.26625L21.29 8.33375L21.2875 8.3525L21.2863 8.37375V8.395L21.2887 8.415L21.2937 8.4375L21.2987 8.455L21.3075 8.475L21.3175 8.49375L21.3263 8.50875L21.3388 8.525L21.3525 8.53875L21.3662 8.55125L21.3812 8.5625L21.445 8.6L21.605 8.69375L21.64 8.71375L21.6737 8.73625L21.8375 8.84625L21.875 8.87125L21.91 8.89875L22.0662 9.02L22.0988 9.045L22.1287 9.07375L22.2775 9.205L22.3088 9.23375L22.3387 9.26375L22.4762 9.405L22.5063 9.435L22.5338 9.4675L22.6625 9.6175L22.69 9.65L22.715 9.685L22.8337 9.84375L22.8587 9.87625L22.8813 9.91125L22.9888 10.0788L23.0112 10.1138L23.0325 10.1512L23.1287 10.325L23.1488 10.3625L23.1663 10.4L23.25 10.58L23.2687 10.6175L23.2838 10.6588L23.3562 10.8438L23.3713 10.8825L23.3838 10.9225L23.4425 11.1112L23.455 11.1512L23.465 11.1925L23.5112 11.385L23.5212 11.4263L23.5275 11.4688L23.5613 11.6637L23.5675 11.7063L23.5725 11.7487L23.5925 11.9475L23.5963 11.9875L23.5975 12.0275L23.6038 12.2262L23.6063 12.27L23.6038 12.3138L23.5975 12.5125L23.5963 12.5525L23.5925 12.5925L23.5725 12.79L23.5675 12.8325L23.5613 12.875L23.5275 13.0713L23.52 13.1125L23.5112 13.1538L23.465 13.3475L23.455 13.3875L23.4425 13.4275L23.3825 13.6175L23.37 13.6562L23.3562 13.695L23.2838 13.8813L23.2687 13.9212L23.25 13.9588L23.1663 14.14L23.1488 14.1775L23.1287 14.215L23.0325 14.3875L23.0112 14.425L22.9888 14.4613L22.8813 14.6275L22.8587 14.6625L22.8337 14.6962L22.7162 14.855L22.6912 14.8888L22.6625 14.9212L22.5338 15.0712L22.5063 15.1038L22.4775 15.1337L22.3387 15.275L22.3088 15.3063L22.2775 15.335L22.1287 15.4662L22.0988 15.4937L22.0662 15.5187L21.91 15.6413L21.875 15.6675L21.8375 15.6925L21.675 15.8025L21.64 15.825L21.605 15.845L21.445 15.9375V15.9388L21.3825 15.9762L21.3662 15.9888L21.3538 16L21.3388 16.015L21.3263 16.03L21.3175 16.045L21.3075 16.065L21.2987 16.0837L21.2937 16.1025L21.2887 16.1237L21.2863 16.1437V16.165L21.2875 16.1862L21.2913 16.2062L21.3075 16.2737L21.3575 16.46L21.3688 16.5L21.3762 16.54L21.415 16.735L21.4237 16.7775L21.4287 16.82L21.4538 17.0175L21.46 17.0588L21.4625 17.1L21.475 17.2987L21.4775 17.34V17.3813L21.4762 17.58V17.6225L21.4725 17.665L21.4575 17.8625L21.455 17.9037L21.4487 17.945L21.4213 18.1425L21.415 18.185L21.4062 18.2275L21.365 18.4212L21.3563 18.4625L21.345 18.5025L21.2913 18.6937L21.28 18.7337L21.2675 18.7712L21.2 18.9587L21.185 19L21.1687 19.0375L21.09 19.22L21.0725 19.26L21.0525 19.2975L20.9613 19.475L20.9425 19.5113L20.9225 19.545L20.82 19.715L20.7975 19.7525L20.7725 19.7863L20.66 19.9487L20.635 19.9837L20.6075 20.0175L20.4825 20.1713L20.4562 20.2038L20.4275 20.235L20.2938 20.38L20.265 20.4113L20.2337 20.44L20.09 20.575L20.06 20.605L20.0275 20.6313L19.875 20.7562L19.8413 20.785L19.8063 20.81L19.645 20.925L19.61 20.95L19.5725 20.9725L19.405 21.075L19.37 21.0963L19.3338 21.1162L19.1587 21.2075L19.1213 21.2287L19.0813 21.2463L18.9 21.3263L18.8612 21.3438L18.82 21.3575L18.635 21.425L18.5963 21.4388L18.555 21.4513L18.3663 21.505L18.325 21.5175L18.2838 21.525L18.0912 21.5675L18.0488 21.5762L18.005 21.5825L17.81 21.61L17.7675 21.6163L17.7262 21.62L17.5288 21.6338L17.4862 21.6375H17.4425L17.2463 21.6388H17.2038L17.1612 21.6362L16.965 21.6237L16.9225 21.6213L16.8813 21.6163L16.6862 21.5913L16.6425 21.585L16.5988 21.5762L16.4062 21.5375L16.365 21.5287L16.325 21.5175L16.1463 21.4688L16.0725 21.45L16.0562 21.4475H16.0212L16.0037 21.4487L15.985 21.4525L15.9688 21.4575L15.9525 21.465L15.9338 21.475L15.9213 21.4837L15.9062 21.4963L15.8912 21.5088L15.8787 21.5238L15.8675 21.5387L15.8363 21.5938L15.7388 21.7675L15.7188 21.8025L15.6962 21.8363L15.5875 22.0012L15.5625 22.0387L15.5375 22.0737L15.4163 22.2312L15.3913 22.2638L15.3638 22.295L15.2337 22.4437L15.205 22.4762L15.175 22.5063L15.035 22.645L15.005 22.675L14.9737 22.7025L14.8237 22.8325L14.7925 22.8612L14.7575 22.8862L14.6 23.0063L14.5675 23.0312L14.5325 23.0538L14.3662 23.1625L14.3312 23.1862L14.2937 23.2075L14.1212 23.3037L14.0837 23.325L14.0463 23.3438L13.8675 23.4275L13.8288 23.4462L13.7887 23.4625L13.605 23.535L13.565 23.55L13.525 23.5625L13.3375 23.6225L13.2975 23.635L13.2563 23.645L13.065 23.6925L13.0225 23.7025L12.98 23.71L12.7862 23.7438L12.7438 23.7512L12.7 23.755L12.5037 23.775L12.4625 23.7788L12.4212 23.7812L12.225 23.7875L12.18 23.7887H12.1363L11.9388 23.7812L11.8987 23.7788L11.8575 23.775L11.6613 23.755L11.6175 23.7512L11.575 23.7438L11.3813 23.71L11.3387 23.7025L11.2963 23.6925L11.105 23.645L11.0638 23.635L11.0238 23.6225L10.8363 23.5625L10.7962 23.55L10.7563 23.535L10.5725 23.4625L10.5325 23.4462L10.4937 23.4275L10.315 23.3438L10.2775 23.325L10.24 23.3037L10.0675 23.2075L10.03 23.1862L9.99375 23.1625L9.82875 23.0538L9.79375 23.0312L9.76125 23.0063L9.60375 22.8875L9.56875 22.8612L9.53625 22.8325L9.38625 22.7025L9.35625 22.675L9.32625 22.6462L9.18625 22.5063L9.155 22.4762L9.1275 22.4437L8.9975 22.2938L8.97 22.2638L8.945 22.2312L8.82375 22.0737L8.7975 22.0387L8.7725 22.0012L8.66375 21.8363L8.6425 21.8025L8.6225 21.7675L8.52875 21.605L8.49 21.5387L8.4775 21.5238L8.465 21.5088L8.4525 21.4963L8.43625 21.4837L8.42375 21.4738L8.405 21.465L8.38875 21.4575L8.3725 21.4525L8.35375 21.4487L8.33625 21.4462H8.31875L8.30125 21.4475L8.285 21.45L8.22625 21.4662L8.035 21.5175L7.995 21.53L7.95375 21.5375L7.76125 21.5762L7.7175 21.585L7.675 21.5913L7.47875 21.6163L7.4375 21.6213L7.395 21.6237L7.19875 21.6362L7.15625 21.6388H6.87375L6.83125 21.635L6.63375 21.62L6.5925 21.6163L6.55 21.61L6.355 21.5825L6.31125 21.5762L6.26875 21.5675L6.07625 21.525L6.035 21.5163L5.99375 21.505L5.805 21.4513L5.765 21.4388L5.725 21.425L5.54 21.3575L5.49875 21.3425L5.46 21.325L5.27875 21.2463L5.23875 21.2287L5.20125 21.2075L5.02625 21.1162L4.98875 21.0975L4.955 21.075L4.78625 20.9725L4.75 20.95L4.715 20.925L4.55375 20.81L4.51875 20.785L4.485 20.7575L4.3325 20.6325L4.3 20.605L4.27 20.575L4.12625 20.44L4.095 20.4113L4.0675 20.38L3.9325 20.235L3.90375 20.2038L3.8775 20.1713L3.7525 20.0175L3.72625 19.9837L3.70125 19.9487L3.5875 19.7863L3.5625 19.7513L3.54 19.715L3.43875 19.545L3.4175 19.5113L3.39875 19.4738L3.3075 19.2988L3.2875 19.26L3.27 19.22L3.19125 19.0387L3.17375 19L3.16125 18.9587L3.09375 18.7712L3.08 18.7337L3.0675 18.6937L3.015 18.5025L3.0025 18.4625L2.995 18.4212L2.95375 18.2275L2.945 18.185L2.93875 18.1425L2.91125 17.945L2.905 17.9037L2.9025 17.8625L2.8875 17.6637L2.885 17.6225V17.58L2.88375 17.38V17.34L2.885 17.2975L2.8975 17.1L2.9 17.0588L2.905 17.0175L2.93 16.82L2.93625 16.7775L2.945 16.735L2.9825 16.54L2.99125 16.5L3.0025 16.46L3.0525 16.2675H3.055L3.07 16.205L3.07375 16.1862L3.075 16.165V16.1437L3.0725 16.1237L3.0675 16.1025L3.0625 16.0837L3.05375 16.065L3.04375 16.045L3.035 16.03L3.0225 16.015L3.00875 16L2.99375 15.9875L2.98 15.9775L2.92375 15.9437L2.7525 15.845L2.7175 15.825L2.68375 15.8025L2.51875 15.6925L2.4825 15.6675L2.4475 15.6413L2.29125 15.5187L2.25875 15.4937L2.2275 15.4662L2.08 15.335L2.04875 15.3063L2.01875 15.275L1.88 15.1337L1.85125 15.1038L1.82375 15.0725L1.695 14.9225L1.66625 14.8888L1.64125 14.855L1.5225 14.6962L1.4975 14.6625L1.47625 14.6275L1.36875 14.4613L1.345 14.425L1.325 14.3875L1.22875 14.2137L1.20875 14.1775L1.19125 14.14L1.10625 13.96L1.08875 13.9212L1.0725 13.88L1.00125 13.695L0.98625 13.6575L0.97375 13.6175L0.915 13.4275L0.9025 13.3875L0.8925 13.3475L0.84625 13.1538L0.83625 13.1125L0.83 13.0713L0.79625 12.875L0.78875 12.8325L0.785 12.79L0.765 12.5925L0.76125 12.5525L0.76 12.5113L0.75 12.3125V12.27L0.75125 12.2262L0.75875 12.0275V11.9875L0.76375 11.9475L0.78375 11.7487L0.7875 11.7063L0.795 11.6637L0.82875 11.4688L0.835 11.4263L0.845 11.385L0.89125 11.1925L0.90125 11.1512L0.91375 11.1112L0.9725 10.9225L0.985 10.8825L1 10.845L1.07125 10.6575L1.0875 10.6188L1.105 10.58L1.19 10.4L1.2075 10.3625L1.2275 10.325L1.32375 10.1512L1.34375 10.1138L1.3675 10.0788L1.475 9.91125L1.4975 9.87625L1.5225 9.84375L1.64 9.685L1.665 9.65L1.69375 9.6175L1.8225 9.4675L1.85 9.435L1.87875 9.405L2.01625 9.26375L2.0475 9.23375L2.07875 9.205L2.22625 9.07375L2.2575 9.04625L2.29 9.02125L2.44625 8.89875L2.48125 8.87125L2.51875 8.84625L2.68125 8.73625L2.71625 8.71375L2.75125 8.69375L2.9225 8.59375V8.595L2.97875 8.5625L2.9925 8.55125L3.0075 8.53875L3.02 8.525L3.0325 8.50875L3.0425 8.49375L3.0525 8.475L3.06125 8.455L3.06625 8.4375L3.07125 8.415L3.07375 8.395V8.375L3.0725 8.35375L3.06875 8.335L3.05375 8.27125Z" fill="#65BC9A"/>
</svg>
